<svg width="17" height="16" viewBox="0 0 17 16" fill="none" xmlns="http://www.w3.org/2000/svg">
<g clip-path="url(#clip0_25_222)">
<path d="M16.2597 9.93526C15.1912 14.221 10.8505 16.8293 6.56422 15.7605C2.27972 14.692 -0.32853 10.351 0.74047 6.06551C1.80847 1.77926 6.14922 -0.829239 10.4342 0.239262C14.7202 1.30776 17.3282 5.64926 16.2597 9.93526Z" fill="#3CEAAA"/>
<g style="mix-blend-mode:multiply" opacity="0.8">
<path fill-rule="evenodd" clip-rule="evenodd" d="M8.4055 4.42193C7.90144 3.93931 7.09504 3.93931 6.59097 4.42193L4.38924 6.52998C3.87025 7.02688 3.87026 7.84355 4.38924 8.34045L7.97717 11.7757C7.98165 11.7804 7.98622 11.7851 7.99086 11.7898C8.1317 11.9306 8.31811 12.0012 8.50462 12.0011C8.6921 12.0016 8.87961 11.931 9.02116 11.7898C9.03225 11.7787 9.04289 11.7674 9.05308 11.7558L12.6117 8.34044C13.1294 7.84354 13.1294 7.02688 12.6117 6.52998L11.4212 5.38741C10.9184 4.90479 10.1139 4.90479 9.61103 5.38741L9.51251 5.48183L8.4055 4.42193ZM9.53346 7.43757C9.86221 7.12281 10.1878 6.80489 10.5161 6.48974L11.5012 7.43521L10.5161 8.38068L9.53346 7.43757ZM8.48372 6.46782L6.48985 8.38068L5.50236 7.43521L7.49824 5.52426L8.48372 6.46782ZM8.50755 8.41983L9.48929 9.36618L8.5054 10.3105L7.51914 9.36618L8.50755 8.41983Z" fill="#141319"/>
</g>
</g>
<defs>
<clipPath id="clip0_25_222">
<rect width="16" height="16" fill="white" transform="translate(0.5)"/>
</clipPath>
</defs>
</svg>
