<svg width="16" height="16" viewBox="0 0 16 16" fill="none" xmlns="http://www.w3.org/2000/svg">
<g clip-path="url(#clip0_25_216)">
<path d="M15.7597 9.93526C14.6912 14.221 10.3505 16.8293 6.06422 15.7605C1.77972 14.692 -0.82853 10.351 0.24047 6.06551C1.30847 1.77926 5.64922 -0.829239 9.93422 0.239262C14.2202 1.30776 16.8282 5.64926 15.7597 9.93526Z" fill="#3CEAAA"/>
<g style="mix-blend-mode:multiply" opacity="0.8">
<path fill-rule="evenodd" clip-rule="evenodd" d="M7.9055 4.42196C7.40144 3.93934 6.59504 3.93934 6.09097 4.42196L3.88924 6.53001C3.37025 7.02691 3.37026 7.84358 3.88924 8.34048L7.47717 11.7757C7.48165 11.7805 7.48622 11.7852 7.49086 11.7898C7.6317 11.9307 7.81811 12.0013 8.00462 12.0012C8.1921 12.0017 8.37961 11.9311 8.52116 11.7898C8.53225 11.7788 8.54289 11.7674 8.55308 11.7559L12.1117 8.34047C12.6294 7.84358 12.6294 7.02691 12.1117 6.53001L10.9212 5.38744C10.4184 4.90482 9.61388 4.90482 9.11103 5.38744L9.01251 5.48186L7.9055 4.42196ZM9.03346 7.4376C9.36221 7.12284 9.68776 6.80492 10.0161 6.48977L11.0012 7.43524L10.0161 8.38071L9.03346 7.4376ZM7.98372 6.46785L5.98985 8.38071L5.00236 7.43524L6.99824 5.52429L7.98372 6.46785ZM8.00755 8.41986L8.98929 9.36621L8.0054 10.3105L7.01914 9.36621L8.00755 8.41986Z" fill="#141319"/>
</g>
</g>
<defs>
<clipPath id="clip0_25_216">
<rect width="16" height="16" fill="white"/>
</clipPath>
</defs>
</svg>
