<svg width="17" height="16" viewBox="0 0 17 16" fill="none" xmlns="http://www.w3.org/2000/svg">
<g clip-path="url(#clip0_35_85)">
<path d="M16.2598 9.93528C15.1913 14.221 10.8506 16.8293 6.56434 15.7605C2.27984 14.692 -0.328408 10.351 0.740592 6.06553C1.80859 1.77928 6.14934 -0.829223 10.4343 0.239277C14.7203 1.30778 17.3283 5.64928 16.2598 9.93528Z" fill="#03BCE4"/>
<g style="mix-blend-mode:multiply" opacity="0.8">
<path fill-rule="evenodd" clip-rule="evenodd" d="M8.4055 4.42196C7.90144 3.93934 7.09504 3.93934 6.59097 4.42196L4.38924 6.53001C3.87025 7.02691 3.87026 7.84358 4.38924 8.34048L7.97717 11.7757C7.98165 11.7805 7.98622 11.7852 7.99086 11.7898C8.1317 11.9307 8.31811 12.0013 8.50462 12.0012C8.6921 12.0017 8.87961 11.9311 9.02116 11.7898C9.03225 11.7788 9.04289 11.7674 9.05308 11.7559L12.6117 8.34047C13.1294 7.84358 13.1294 7.02691 12.6117 6.53001L11.4212 5.38744C10.9184 4.90482 10.1139 4.90482 9.61103 5.38744L9.51251 5.48186L8.4055 4.42196ZM9.53346 7.4376C9.86221 7.12284 10.1878 6.80492 10.5161 6.48977L11.5012 7.43524L10.5161 8.38071L9.53346 7.4376ZM8.48372 6.46785L6.48985 8.38071L5.50236 7.43524L7.49824 5.52429L8.48372 6.46785ZM8.50755 8.41986L9.48929 9.36621L8.5054 10.3105L7.51914 9.36621L8.50755 8.41986Z" fill="#141319"/>
</g>
<g style="mix-blend-mode:multiply" opacity="0.4">
<circle cx="8.5" cy="8" r="6.75" stroke="#141319" stroke-width="0.5"/>
</g>
</g>
<defs>
<clipPath id="clip0_35_85">
<rect width="16" height="16" fill="white" transform="translate(0.5)"/>
</clipPath>
</defs>
</svg>
