<svg width="17" height="16" viewBox="0 0 17 16" fill="none" xmlns="http://www.w3.org/2000/svg">
<g clip-path="url(#clip0_35_121)">
<path d="M16.2598 9.93528C15.1913 14.221 10.8506 16.8293 6.56434 15.7605C2.27984 14.692 -0.328408 10.351 0.740592 6.06553C1.80859 1.77928 6.14934 -0.829223 10.4343 0.239277C14.7203 1.30778 17.3283 5.64928 16.2598 9.93528Z" fill="#3CEAAA"/>
<g style="mix-blend-mode:multiply" opacity="0.8">
<path fill-rule="evenodd" clip-rule="evenodd" d="M8.4055 4.4219C7.90144 3.93928 7.09504 3.93928 6.59097 4.4219L4.38924 6.52995C3.87025 7.02685 3.87026 7.84352 4.38924 8.34042L7.97717 11.7757C7.98165 11.7804 7.98622 11.7851 7.99086 11.7898C8.1317 11.9306 8.31811 12.0012 8.50462 12.0011C8.6921 12.0016 8.87961 11.931 9.02116 11.7898C9.03225 11.7787 9.04289 11.7674 9.05308 11.7558L12.6117 8.34041C13.1294 7.84351 13.1294 7.02685 12.6117 6.52995L11.4212 5.38738C10.9184 4.90476 10.1139 4.90476 9.61103 5.38738L9.51251 5.4818L8.4055 4.4219ZM9.53346 7.43754C9.86221 7.12278 10.1878 6.80486 10.5161 6.48971L11.5012 7.43518L10.5161 8.38065L9.53346 7.43754ZM8.48372 6.46778L6.48985 8.38065L5.50236 7.43518L7.49824 5.52423L8.48372 6.46778ZM8.50755 8.4198L9.48929 9.36615L8.5054 10.3104L7.51914 9.36615L8.50755 8.4198Z" fill="#141319"/>
</g>
</g>
<defs>
<clipPath id="clip0_35_121">
<rect width="16" height="16" fill="white" transform="translate(0.5)"/>
</clipPath>
</defs>
</svg>
