<svg width="20" height="20" viewBox="0 0 20 20" fill="none" xmlns="http://www.w3.org/2000/svg">
<path d="M17.5 5.47991C16.9662 5.71646 16.3927 5.87629 15.7898 5.94854C16.4119 5.57631 16.8772 4.99048 17.0991 4.30034C16.5147 4.64749 15.875 4.89185 15.208 5.02278C14.7594 4.54384 14.1653 4.22639 13.5178 4.11971C12.8703 4.01304 12.2058 4.12311 11.6272 4.43284C11.0487 4.74257 10.5887 5.23463 10.3185 5.83263C10.0483 6.43062 9.98308 7.10109 10.133 7.73994C8.94874 7.68048 7.79023 7.37268 6.73265 6.83651C5.67506 6.30033 4.74204 5.54778 3.99412 4.62768C3.73839 5.06882 3.59134 5.58028 3.59134 6.12499C3.59106 6.61536 3.71181 7.09821 3.9429 7.53071C4.17398 7.96321 4.50825 8.33199 4.91604 8.60432C4.44311 8.58927 3.98061 8.46148 3.56705 8.23159V8.26995C3.567 8.9577 3.8049 9.62429 4.24038 10.1566C4.67586 10.6889 5.2821 11.0542 5.95623 11.1904C5.51751 11.3091 5.05754 11.3266 4.61108 11.2416C4.80127 11.8333 5.17177 12.3508 5.67068 12.7216C6.1696 13.0923 6.77196 13.2978 7.39345 13.3092C6.33844 14.1374 5.03552 14.5866 3.69427 14.5846C3.45669 14.5847 3.2193 14.5708 2.98334 14.5431C4.34478 15.4184 5.92959 15.883 7.54816 15.8812C13.0272 15.8812 16.0225 11.3432 16.0225 7.40749C16.0225 7.27962 16.0193 7.15048 16.0135 7.02261C16.5962 6.60128 17.0991 6.07953 17.4987 5.48182L17.5 5.47991Z" fill="white" fill-opacity="0.8"/>
</svg>
