<svg width="20" height="20" viewBox="0 0 20 20" fill="none" xmlns="http://www.w3.org/2000/svg">
<path d="M16.2216 4.0685C16.2216 4.0685 17.6092 3.5274 17.4931 4.84139C17.4549 5.38248 17.1081 7.27648 16.8381 9.32478L15.9131 15.3929C15.9131 15.3929 15.8359 16.2818 15.142 16.4365C14.4484 16.5908 13.4076 15.8954 13.2147 15.7407C13.0604 15.6247 10.3239 13.8853 9.3603 13.0353C9.09029 12.8031 8.7817 12.3395 9.39887 11.7984L13.4458 7.93329C13.9083 7.4697 14.3709 6.38752 12.4436 7.7015L7.04699 11.3731C7.04699 11.3731 6.43018 11.7599 5.27406 11.412L2.76825 10.6388C2.76825 10.6388 1.84321 10.0591 3.42363 9.47943C7.27843 7.66293 12.0197 5.80785 16.2209 4.0685H16.2216Z" fill="white" fill-opacity="0.8"/>
</svg>
