<svg width="20" height="20" viewBox="0 0 20 20" fill="none" xmlns="http://www.w3.org/2000/svg">
<path d="M17.1833 6.569C17.0984 6.26621 16.933 5.99208 16.7048 5.77574C16.4701 5.55276 16.1825 5.39325 15.8691 5.31228C14.6961 5.0031 9.99646 5.0031 9.99646 5.0031C8.03725 4.98081 6.07852 5.07885 4.13134 5.29667C3.8179 5.38362 3.53081 5.54669 3.2956 5.77137C3.06449 5.99373 2.8971 6.26794 2.80965 6.56838C2.59959 7.70002 2.49753 8.84906 2.50484 10C2.49735 11.1499 2.59916 12.2986 2.80965 13.4316C2.89522 13.7308 3.062 14.0038 3.29373 14.2243C3.52546 14.4448 3.81403 14.604 4.13134 14.6884C5.31998 14.9969 9.99646 14.9969 9.99646 14.9969C11.9582 15.0192 13.9194 14.9212 15.8691 14.7033C16.1825 14.6224 16.4701 14.4629 16.7048 14.2399C16.933 14.0236 17.0981 13.7494 17.1826 13.4466C17.3982 12.3154 17.503 11.1659 17.4956 10.0144C17.5118 8.85797 17.4071 7.70303 17.1833 6.56838V6.569ZM8.50238 12.1387V7.86195L12.4125 10.0006L8.50238 12.1387Z" fill="white" fill-opacity="0.8"/>
</svg>
