<svg width="20" height="20" viewBox="0 0 20 20" fill="none" xmlns="http://www.w3.org/2000/svg">
<g clip-path="url(#clip0_11_407)">
<path fill-rule="evenodd" clip-rule="evenodd" d="M10 1.66663C5.39585 1.66663 1.66669 5.39579 1.66669 9.99996C1.66669 13.6875 4.0521 16.802 7.3646 17.9062C7.78127 17.9791 7.93752 17.7291 7.93752 17.5104C7.93752 17.3125 7.9271 16.6562 7.9271 15.9583C5.83335 16.3437 5.29169 15.4479 5.12502 14.9791C5.03127 14.7395 4.62502 14 4.27085 13.802C3.97919 13.6458 3.56252 13.2604 4.26044 13.25C4.91669 13.2395 5.38544 13.8541 5.54169 14.1041C6.29169 15.3645 7.4896 15.0104 7.96877 14.7916C8.04169 14.25 8.26044 13.8854 8.50002 13.677C6.64585 13.4687 4.70835 12.75 4.70835 9.56246C4.70835 8.65621 5.03127 7.90621 5.56252 7.32288C5.47919 7.11454 5.18752 6.26038 5.64585 5.11454C5.64585 5.11454 6.34377 4.89579 7.93752 5.96871C8.60419 5.78121 9.31252 5.68746 10.0209 5.68746C10.7292 5.68746 11.4375 5.78121 12.1042 5.96871C13.6979 4.88538 14.3959 5.11454 14.3959 5.11454C14.8542 6.26038 14.5625 7.11454 14.4792 7.32288C15.0104 7.90621 15.3334 8.64579 15.3334 9.56246C15.3334 12.7604 13.3854 13.4687 11.5313 13.677C11.8334 13.9375 12.0938 14.4375 12.0938 15.2187C12.0938 16.3333 12.0834 17.2291 12.0834 17.5104C12.0834 17.7291 12.2396 17.9895 12.6563 17.9062C14.3106 17.3477 15.7481 16.2845 16.7665 14.8662C17.7848 13.4479 18.3329 11.746 18.3334 9.99996C18.3334 5.39579 14.6042 1.66663 10 1.66663Z" fill="white" fill-opacity="0.8"/>
</g>
<defs>
<clipPath id="clip0_11_407">
<rect width="16.6667" height="16.6667" fill="white" transform="translate(1.66669 1.66663)"/>
</clipPath>
</defs>
</svg>
