<svg width="20" height="20" viewBox="0 0 20 20" fill="none" xmlns="http://www.w3.org/2000/svg">
<path d="M10.9609 10C10.9609 12.3297 9.06719 14.2188 6.73 14.2188C6.17525 14.2195 5.62578 14.111 5.11297 13.8993C4.60017 13.6877 4.13406 13.3772 3.74127 12.9854C3.34848 12.5937 3.03669 12.1284 2.82371 11.6162C2.61074 11.1039 2.50074 10.5548 2.5 10C2.5 7.66938 4.39375 5.78126 6.73 5.78126C7.28483 5.78039 7.8344 5.88884 8.34731 6.10039C8.86023 6.31195 9.32645 6.62248 9.71934 7.01424C10.1122 7.40599 10.4241 7.87131 10.6371 8.38362C10.8502 8.89592 10.9602 9.44517 10.9609 10ZM15.6016 10C15.6016 12.1938 14.6547 13.9713 13.4866 13.9713C12.3184 13.9713 11.3716 12.1928 11.3716 10C11.3716 7.80626 12.3184 6.02876 13.4866 6.02876C14.6547 6.02876 15.6016 7.80719 15.6016 10ZM17.5 10C17.5 11.965 17.1672 13.5578 16.7556 13.5578C16.345 13.5578 16.0122 11.9641 16.0122 10C16.0122 8.03501 16.345 6.44219 16.7566 6.44219C17.1672 6.44219 17.5 8.03501 17.5 10Z" fill="white" fill-opacity="0.8"/>
</svg>
