<svg width="20" height="20" viewBox="0 0 20 20" fill="none" xmlns="http://www.w3.org/2000/svg">
<path d="M15.39 5.13417C14.3984 4.687 13.3356 4.35648 12.2241 4.16854C12.2142 4.16664 12.204 4.16786 12.1948 4.17204C12.1857 4.17622 12.178 4.18315 12.173 4.19187C12.0369 4.43101 11.8852 4.74273 11.7789 4.989C10.6001 4.81288 9.40173 4.81288 8.22295 4.989C8.10457 4.71607 7.97107 4.44995 7.82309 4.19187C7.81807 4.18304 7.81048 4.17596 7.80133 4.17156C7.79219 4.16716 7.78191 4.16565 7.77189 4.16724C6.66109 4.35518 5.59825 4.6857 4.60605 5.13352C4.59752 5.1371 4.59028 5.1432 4.58531 5.15102C2.56851 8.11595 2.01571 11.0076 2.28725 13.8631C2.288 13.8701 2.29018 13.8768 2.29363 13.8829C2.29708 13.8891 2.30175 13.8944 2.30734 13.8987C3.48449 14.7557 4.79745 15.4086 6.19124 15.83C6.20096 15.8329 6.21135 15.8329 6.22106 15.8299C6.23077 15.8269 6.23935 15.8211 6.24568 15.8131C6.5456 15.412 6.81138 14.9865 7.04022 14.5409C7.04339 14.5348 7.04522 14.5281 7.04558 14.5213C7.04594 14.5144 7.04483 14.5076 7.04231 14.5012C7.03979 14.4948 7.03592 14.489 7.03098 14.4842C7.02603 14.4795 7.02012 14.4758 7.01364 14.4735C6.59499 14.3159 6.18935 14.1256 5.80045 13.9045C5.79346 13.9005 5.78758 13.8949 5.78331 13.8881C5.77905 13.8812 5.77655 13.8735 5.77604 13.8654C5.77553 13.8574 5.77701 13.8494 5.78037 13.8421C5.78373 13.8347 5.78884 13.8284 5.79527 13.8235C5.87692 13.7633 5.95858 13.7004 6.03635 13.6375C6.04335 13.6319 6.05178 13.6283 6.06071 13.6271C6.06963 13.626 6.0787 13.6273 6.0869 13.631C8.63188 14.7742 11.3881 14.7742 13.9033 13.631C13.9115 13.6271 13.9207 13.6256 13.9297 13.6266C13.9388 13.6277 13.9474 13.6312 13.9545 13.6369C14.0323 13.7004 14.1133 13.7633 14.1956 13.8235C14.2021 13.8283 14.2073 13.8345 14.2107 13.8418C14.2142 13.8491 14.2158 13.857 14.2154 13.8651C14.215 13.8731 14.2127 13.8809 14.2085 13.8878C14.2044 13.8947 14.1986 13.9004 14.1917 13.9045C13.8042 14.1275 13.401 14.3161 12.9779 14.4729C12.9714 14.4753 12.9654 14.479 12.9605 14.4838C12.9555 14.4886 12.9517 14.4945 12.9492 14.5009C12.9467 14.5073 12.9455 14.5142 12.9459 14.5211C12.9463 14.5281 12.9481 14.5348 12.9513 14.5409C13.1846 14.9862 13.4516 15.41 13.7452 15.8125C13.7513 15.8207 13.7598 15.8269 13.7695 15.8301C13.7793 15.8334 13.7898 15.8335 13.7996 15.8306C15.1958 15.4104 16.5109 14.7573 17.6893 13.8987C17.6951 13.8947 17.6999 13.8895 17.7035 13.8834C17.7071 13.8774 17.7093 13.8707 17.7101 13.8637C18.0341 10.5624 17.167 7.69405 15.4101 5.15231C15.4058 5.14405 15.3986 5.13761 15.39 5.13417ZM7.42063 12.1243C6.65461 12.1243 6.02274 11.4315 6.02274 10.5819C6.02274 9.73159 6.6423 9.03945 7.42063 9.03945C8.2048 9.03945 8.83084 9.73743 8.81853 10.5819C8.81853 11.4321 8.19897 12.1243 7.42063 12.1243ZM12.589 12.1243C11.8223 12.1243 11.1911 11.4315 11.1911 10.5819C11.1911 9.73159 11.81 9.03945 12.589 9.03945C13.3732 9.03945 13.9992 9.73743 13.9869 10.5819C13.9869 11.4321 13.3738 12.1243 12.589 12.1243Z" fill="white" fill-opacity="0.8"/>
</svg>
