<svg width="20" height="20" viewBox="0 0 20 20" fill="none" xmlns="http://www.w3.org/2000/svg">
<path d="M17.1833 6.569C17.0984 6.26621 16.9331 5.99208 16.7049 5.77574C16.4702 5.55276 16.1826 5.39325 15.8691 5.31228C14.6961 5.0031 9.99652 5.0031 9.99652 5.0031C8.03731 4.98081 6.07858 5.07885 4.1314 5.29667C3.81796 5.38362 3.53087 5.54669 3.29566 5.77137C3.06456 5.99373 2.89716 6.26794 2.80971 6.56838C2.59965 7.70002 2.49759 8.84906 2.5049 10C2.49741 11.1499 2.59922 12.2986 2.80971 13.4316C2.89529 13.7308 3.06206 14.0038 3.29379 14.2243C3.52552 14.4448 3.81409 14.604 4.1314 14.6884C5.32004 14.9969 9.99652 14.9969 9.99652 14.9969C11.9582 15.0192 13.9194 14.9212 15.8691 14.7033C16.1826 14.6224 16.4702 14.4629 16.7049 14.2399C16.933 14.0236 17.0982 13.7494 17.1827 13.4466C17.3982 12.3154 17.5031 11.1659 17.4956 10.0144C17.5118 8.85797 17.4072 7.70303 17.1833 6.56838V6.569ZM8.50244 12.1387V7.86195L12.4125 10.0006L8.50244 12.1387Z" fill="white" fill-opacity="0.8"/>
</svg>
