<svg width="20" height="20" viewBox="0 0 20 20" fill="none" xmlns="http://www.w3.org/2000/svg">
<g clip-path="url(#clip0_11_282)">
<path fill-rule="evenodd" clip-rule="evenodd" d="M9.99996 1.66663C5.39579 1.66663 1.66663 5.39579 1.66663 9.99996C1.66663 13.6875 4.05204 16.802 7.36454 17.9062C7.78121 17.9791 7.93746 17.7291 7.93746 17.5104C7.93746 17.3125 7.92704 16.6562 7.92704 15.9583C5.83329 16.3437 5.29163 15.4479 5.12496 14.9791C5.03121 14.7395 4.62496 14 4.27079 13.802C3.97913 13.6458 3.56246 13.2604 4.26038 13.25C4.91663 13.2395 5.38538 13.8541 5.54163 14.1041C6.29163 15.3645 7.48954 15.0104 7.96871 14.7916C8.04163 14.25 8.26038 13.8854 8.49996 13.677C6.64579 13.4687 4.70829 12.75 4.70829 9.56246C4.70829 8.65621 5.03121 7.90621 5.56246 7.32288C5.47913 7.11454 5.18746 6.26038 5.64579 5.11454C5.64579 5.11454 6.34371 4.89579 7.93746 5.96871C8.60413 5.78121 9.31246 5.68746 10.0208 5.68746C10.7291 5.68746 11.4375 5.78121 12.1041 5.96871C13.6979 4.88538 14.3958 5.11454 14.3958 5.11454C14.8541 6.26038 14.5625 7.11454 14.4791 7.32288C15.0104 7.90621 15.3333 8.64579 15.3333 9.56246C15.3333 12.7604 13.3854 13.4687 11.5312 13.677C11.8333 13.9375 12.0937 14.4375 12.0937 15.2187C12.0937 16.3333 12.0833 17.2291 12.0833 17.5104C12.0833 17.7291 12.2395 17.9895 12.6562 17.9062C14.3105 17.3477 15.748 16.2845 16.7664 14.8662C17.7848 13.4479 18.3328 11.746 18.3333 9.99996C18.3333 5.39579 14.6041 1.66663 9.99996 1.66663Z" fill="white" fill-opacity="0.8"/>
</g>
<defs>
<clipPath id="clip0_11_282">
<rect width="16.6667" height="16.6667" fill="white" transform="translate(1.66663 1.66663)"/>
</clipPath>
</defs>
</svg>
