<svg width="20" height="20" viewBox="0 0 20 20" fill="none" xmlns="http://www.w3.org/2000/svg">
<path d="M16.2216 4.0685C16.2216 4.0685 17.6091 3.5274 17.4931 4.84139C17.4548 5.38248 17.108 7.27648 16.838 9.32478L15.913 15.3929C15.913 15.3929 15.8359 16.2818 15.1419 16.4365C14.4483 16.5908 13.4075 15.8954 13.2147 15.7407C13.0604 15.6247 10.3238 13.8853 9.36024 13.0353C9.09023 12.8031 8.78164 12.3395 9.39881 11.7984L13.4458 7.93329C13.9083 7.4697 14.3708 6.38752 12.4436 7.7015L7.04693 11.3731C7.04693 11.3731 6.43012 11.7599 5.274 11.412L2.76819 10.6388C2.76819 10.6388 1.84315 10.0591 3.42357 9.47943C7.27837 7.66293 12.0196 5.80785 16.2209 4.0685H16.2216Z" fill="white" fill-opacity="0.8"/>
</svg>
