<svg width="20" height="20" viewBox="0 0 20 20" fill="none" xmlns="http://www.w3.org/2000/svg">
<path d="M17.5001 5.47991C16.9662 5.71646 16.3927 5.87629 15.7898 5.94854C16.4119 5.57631 16.8773 4.99048 17.0992 4.30034C16.5147 4.64749 15.8751 4.89185 15.2081 5.02278C14.7595 4.54384 14.1653 4.22639 13.5179 4.11971C12.8704 4.01304 12.2058 4.12311 11.6273 4.43284C11.0488 4.74257 10.5887 5.23463 10.3185 5.83263C10.0483 6.43062 9.98314 7.10109 10.133 7.73994C8.9488 7.68048 7.79029 7.37268 6.73271 6.83651C5.67512 6.30033 4.7421 5.54778 3.99418 4.62768C3.73845 5.06882 3.5914 5.58028 3.5914 6.12499C3.59112 6.61536 3.71187 7.09821 3.94296 7.53071C4.17404 7.96321 4.50831 8.33199 4.9161 8.60432C4.44317 8.58927 3.98067 8.46148 3.56711 8.23159V8.26995C3.56706 8.9577 3.80496 9.62429 4.24044 10.1566C4.67592 10.6889 5.28216 11.0542 5.95629 11.1904C5.51757 11.3091 5.05761 11.3266 4.61114 11.2416C4.80134 11.8333 5.17183 12.3508 5.67074 12.7216C6.16966 13.0923 6.77202 13.2978 7.39351 13.3092C6.3385 14.1374 5.03558 14.5866 3.69433 14.5846C3.45675 14.5847 3.21936 14.5708 2.9834 14.5431C4.34484 15.4184 5.92965 15.883 7.54822 15.8812C13.0273 15.8812 16.0226 11.3432 16.0226 7.40749C16.0226 7.27962 16.0194 7.15048 16.0136 7.02261C16.5962 6.60128 17.0991 6.07953 17.4988 5.48182L17.5001 5.47991Z" fill="white" fill-opacity="0.8"/>
</svg>
